<svg fill="none" height="24" viewBox="0 0 24 24" width="24" xmlns="http://www.w3.org/2000/svg"><g stroke="#22202a" stroke-linecap="round"><path d="m11 21.5v-16.5c0-.66667.1-2-1.50001-2-1.57735 0-1.91068 1.86603-1 2.6547m2.50001 15.8453c-1.78491 0-2.37511-1.5929-1.77061-2.6464m-1.36539-14.44024c-.45338-.08276-.92211-.0349-1.36467.13933s-.84529.46946-1.17251.85953-.56883.86294-.70343 1.37673c-.13461.51379-.15805 1.05264-.06825 1.56881s.29007.99374.58307 1.39041c.29299.39663.66967.70013 1.09667.88363m-.01984 6.4026c-.14848.2876-.22234.6192-.21504.9656.0073.3463.09554.6967.2569 1.0201.16136.3233.39086.6097.66818.8337.27731.224.59388.3788.92166.4505.32778.0718.65665.0584.95749-.0391m-3.65329-10.28796c-.28626.03236-.55847.14376-.79252.32436-.23404.1807-.4227.4249-.54926.7111s-.18712.6056-.17631.9298c.01082.3242.09266.6433.2383.9289.14563.2857.35055.5291.59661.7087.24606.1797.52567.29.81405.3212m-.54956-.0593c-.28223.1934-.51235.4534-.66999.7572-.15764.3037-.23793.6417-.23375.984.00418.3424.09269.6785.2577.9786.165.3001.40141.555.68828.742.28686.1871.61534.3005.95632.3303"/><g stroke-linejoin="round"><path d="m7.63558 12.3097c.29921.0112.59621-.0621.86471-.2136.26849-.1515.50019-.3764.67456-.6548s.28604-.6017.32512-.9413c.03907-.3396.00435-.68493-.1011-1.00548-.10546-.32055-.27838-.6064-.50345-.83222"/><path d="m10.9561 14.9439c-.3116.0003-.6114.0716-.8728.2076-.26136.1359-.4763.3324-.62576.5718-.14945.2395-.22879.5147-.231.8011"/><path d="m6.5566 14.3706c.17046-.002.33372.0396.4753.1211.14158.0814.25712.2002.33637.3457.07926.1456.1198.3134.11801.4887"/><path d="m7.49998 7c-.12287-.0379-.25424-.04047-.38246-.00748-.12821.033-.24933.10055-.35261.19665-.10328.09611-.18555.21782-.2395.35434-.05396.13652-.07794.28365-.06982.42835.00811.1447.04807.2825.11634.4012"/></g><path d="m13.0012 21.5v-16.5c0-.66667-.1-2 1.5-2 1.5599 0 1.9032 1.82483 1.0299 2.62805m-2.5299 15.87195c1.7849 0 2.3751-1.5929 1.7706-2.6464m1.3654-14.44024c.4534-.08276.9221-.0349 1.3647.13933s.8453.46946 1.1725.85953.5688.86294.7034 1.37673.1581 1.05264.0683 1.56881-.2901.99374-.5831 1.39041c-.293.39663-.6697.70013-1.0967.88363m.0199 6.4026c.1485.2876.2224.6192.2151.9656-.0073.3463-.0956.6967-.2569 1.0201-.1614.3233-.3909.6097-.6682.8337s-.5939.3788-.9217.4505c-.3278.0718-.6566.0584-.9575-.0391m3.6533-10.28796c.2862.03236.5585.14376.7925.32436.234.1807.4227.4249.5493.7111.1265.2862.1871.6056.1763.9298s-.0927.6433-.2383.9289c-.1457.2857-.3506.5291-.5966.7087-.2461.1797-.5257.29-.8141.3212m.5496-.0593c.2822.1934.5123.4534.67.7572.1576.3037.2379.6417.2337.984-.0042.3424-.0927.6785-.2577.9786s-.4014.555-.6883.742c-.2868.1871-.6153.3005-.9563.3303"/><path d="m16.8883 12.0659c-.2931.0611-.5982.0385-.8883-.0659s-.5561-.2873-.7747-.5326c-.2185-.2453-.3827-.5453-.4781-.8736-.0954-.3282-.119-.67448-.0687-1.00816" stroke-linejoin="round"/><path d="m15.3949 16.6999c.3113-.0132.6079-.0969.8634-.2435.2556-.1466.4622-.3518.6017-.5972.1394-.2455.2073-.5236.1977-.8099" stroke-linejoin="round"/><path d="m14.8345 13.5734c-.0628.1585-.0823.3258-.0569.4872.0255.1613.0951.3117.2027.4377.1076.1261.2498.224.4142.285" stroke-linejoin="round"/><path d="m16.6948 7.35421c.1178.05161.2189.13551.2944.24427s.123.23904.1384.37928c.0153.14024-.0019.28612-.0503.42472s-.1264.26564-.227.36987c-.1007.10422-.221.18242-.3503.22766" stroke-linejoin="round"/></g></svg>